<svg width="968" height="571" fill="none" xmlns="http://www.w3.org/2000/svg">
    <path d="M466.935 392.402c-11.953 9.591-31.454 21.834-53.171 21.834-35.684 0-54.649-23.051-37.915-41.262 16.733-18.212 78.815-64.312 108.921-64.312 30.106 0 40.523 44.985 52.417 44.985h49.651l-25.137-86.276c-8.722-29.947 9.707-61.038 40.175-67.732l73.803-16.241 184.953-.855 55.693 20.428c29.729 9.055 57.98 31.845 50.389 90.435-8.07 62.269-25.615 207.83-25.615 207.83H559.122c0-21.558-16.733-33.09-41.638-58.734-24.905-25.644-50.549-50.085-50.549-50.085v-.015Z" fill="#1AB6BD"/>
    <path d="M389.657 558.755s35.51 9.302 43.942-19.037c0 0 46.593 25.441 60.227-12.228 0 0 61.95 30.237 65.297-26.267l14.503-40.334-136.594-134.13-12.865-73.542c-4.68-26.716-26.571-47.042-53.548-49.723l-88.681-8.837H102.011l-54.605 12.097c-38.596 8.548-58.734 51.244-40.77 86.479l97.954 192.126a29.069 29.069 0 0 0 25.89 15.864h133.493" fill="#F9BE37"/>
    <path d="M311.681 365.354h-161.89l-59.85-110.428a2.18 2.18 0 0 1 .87-2.941 2.166 2.166 0 0 1 2.94.869l58.619 108.153h158.093c4.55-7.186 30.99-46.839 59.242-46.839 29.932 0 54.171 18.443 55.185 19.225a2.158 2.158 0 0 1 .391 3.043 2.157 2.157 0 0 1-3.042.391c-.232-.188-24.108-18.327-52.534-18.327-28.425 0-55.895 45.333-56.185 45.796l-.637 1.043h-1.217l.015.015Z" fill="#1A1A1A"/>
    <path d="M100.889 194.655c9.982-2.26 24.586-122.83 32.25-143.04 7.664-20.211 39.219-19.79 39.219-19.79s9.794-15.155 16.647-11.476c6.853 3.68-2.507 15.17-2.507 15.17s9.287-28.209 23.877-22.674c14.604 5.534-7.925 22.934-7.925 22.934s22.5-28.324 31.439-19.993c8.939 8.33-3.086 17.154-3.086 17.154s17.27.362 26.426 5.36c8.2 4.492 19.139 123.655 22.964 150.009.405 2.811 2.825 6.694 5.65 7.172" fill="#F9BE37"/>
    <path d="M241.459 102.004c-.116 2-.522 6.129-6.969 7.027-6.461.884-9.402 1.362-10.735.522-1.333-.841-3.217-7.462-2.014-8.867 1.202-1.42 14.285-2.478 16.878-1.913 2.594.551 2.913 1.797 2.826 3.246l.014-.015Z" fill="#1A1A1A"/>
    <path d="M208.536 125.213a2.172 2.172 0 0 1-2.173-2.086 2.18 2.18 0 0 1 2.086-2.26c8.867-.334 15.024-2.449 17.791-6.085 2.144-2.826 1.55-5.694 1.536-5.723l4.216-1.072c2.666 9.678 4.897 10.996 14.85 8.736a2.159 2.159 0 0 1 2.593 1.637 2.161 2.161 0 0 1-1.637 2.593c-9.258 2.101-14.082 1.087-17.298-4.723-.232.392-.493.783-.797 1.174-3.637 4.781-10.721 7.403-21.08 7.794h-.087v.015Z" fill="#1A1A1A"/>
    <path d="M253.121 36.535c13.85 3.332 27.469 25.02 35.597 43.16 8.113 18.153 33.583 69.615 16.357 75.41-17.226 5.795-30.744-17.27-30.744-17.27l-21.138-86.986-.072-14.314Z" fill="#F9BE37"/>
    <path d="M274.351 140.022c-1.13 0-2.071-.87-2.158-2-1.782-22.673-7.925-83.523-14.85-92.68a2.171 2.171 0 1 1 3.462-2.622c8.954 11.837 15.053 86.494 15.72 94.955a2.165 2.165 0 0 1-2 2.332h-.174v.015ZM232.81 93.197c-2.782 0-4.825-.391-4.999-.42a2.174 2.174 0 0 1-1.709-2.55c.232-1.174 1.376-1.956 2.55-1.71.072.015 8.011 1.507 13.068-1.869a2.172 2.172 0 0 1 3.013.609c.667 1 .392 2.347-.608 3.013-3.579 2.376-7.983 2.941-11.315 2.941v-.014ZM192.92 96.891c-4.26 0-7.186-1.086-7.403-1.159-1.116-.42-1.681-1.68-1.261-2.81.42-1.116 1.681-1.68 2.811-1.26.318.115 8.026 2.882 16.226-1.971a2.19 2.19 0 0 1 2.985.753c.623 1.029.275 2.362-.754 2.985a24.504 24.504 0 0 1-12.59 3.462h-.014Z" fill="#1A1A1A"/>
    <path d="M143.532 39.854s8.722 3.1 12.417 13.082c5.577 15.024-6.897 80.018-43.175 113.456-36.292 33.438-54.837-.956-37.249-30.309 17.589-29.353 35.829-53.562 44.03-69.325 8.2-15.778 23.977-26.89 23.977-26.89v-.014Z" fill="#F9BE37"/>
    <path d="M860.639 182.53c-9.606-3.521-24.586-122.83-32.251-143.04-7.664-20.211-39.219-19.791-39.219-19.791s-9.793-15.155-16.646-11.475c-6.853 3.68 2.506 15.17 2.506 15.17S765.742-4.816 751.153.72c-14.604 5.534 7.925 22.934 7.925 22.934s-22.5-28.324-31.439-19.993c-8.939 8.33 3.086 17.153 3.086 17.153s-17.27.363-26.426 5.361c-8.201 4.491-19.139 123.655-22.964 150.009-.406 2.811-2.854 6.549-5.65 7.172" fill="#1AB6BD"/>
    <path d="M720.044 89.88c.116 1.998.522 6.127 6.969 7.026 6.462.883 9.403 1.362 10.736.521 1.333-.84 3.216-7.461 2.014-8.866-1.203-1.42-14.286-2.478-16.879-1.913-2.593.55-2.912 1.797-2.825 3.246l-.015-.015Z" fill="#1A1A1A"/>
    <path d="M752.994 113.089h-.087c-10.359-.391-17.443-3.014-21.08-7.795a11.263 11.263 0 0 1-.797-1.173c-3.231 5.809-8.041 6.824-17.299 4.723a2.17 2.17 0 0 1-1.637-2.593 2.16 2.16 0 0 1 2.594-1.638c9.967 2.26 12.184.942 14.85-8.736l4.216 1.072c-.015.102-.594 2.97 1.594 5.795 2.796 3.593 8.924 5.68 17.733 6.013a2.172 2.172 0 0 1 2.086 2.26 2.17 2.17 0 0 1-2.173 2.086v-.014Z" fill="#1A1A1A"/>
    <path d="M708.377 24.405c-13.85 3.332-27.469 25.02-35.597 43.16-8.113 18.153-33.583 69.615-16.357 75.41 17.226 5.795 30.744-17.27 30.744-17.27l21.138-86.986.072-14.314Z" fill="#1AB6BD"/>
    <path d="M687.176 127.896h-.174c-1.203-.087-2.086-1.145-1.999-2.333.666-8.475 6.765-83.132 15.719-94.954a2.171 2.171 0 1 1 3.463 2.622c-6.926 9.156-13.068 70.006-14.851 92.68a2.163 2.163 0 0 1-2.158 1.999v-.014ZM728.672 81.069c-3.333 0-7.737-.551-11.316-2.942a2.173 2.173 0 0 1-.608-3.013 2.172 2.172 0 0 1 3.013-.609c5.086 3.39 12.996 1.884 13.069 1.87a2.173 2.173 0 0 1 2.549 1.709 2.174 2.174 0 0 1-1.709 2.55c-.174.029-2.217.42-4.998.42v.014ZM768.601 84.763c-3.549 0-8.012-.754-12.59-3.463a2.17 2.17 0 0 1-.753-2.984 2.169 2.169 0 0 1 2.984-.754c8.201 4.868 15.908 2.101 16.241 1.97 1.116-.405 2.376.146 2.797 1.276a2.182 2.182 0 0 1-1.261 2.796c-.217.087-3.158 1.159-7.403 1.159h-.015Z" fill="#1A1A1A"/>
    <path d="M817.997 27.72s-8.722 3.101-12.417 13.083c-5.577 15.024 6.897 80.018 43.175 113.456 36.292 33.438 54.837-.956 37.248-30.309-17.588-29.353-35.828-53.562-44.029-69.325-8.2-15.778-23.977-26.89-23.977-26.89v-.014ZM263.975 501.221c-12.271 30.106 37.176 50.563 53.533 30.483 16.357-20.081 28.933-41.407 33.83-60.966 6.693-26.759-27.875-46.101-50.925-21.558-23.051 24.528-29.715 35.539-36.438 52.041Z" fill="#1AB6BD"/>
    <path d="M301.096 526.849c-9.519 20.457 23.195 45.492 48.23 28.136 21.283-14.749 39.219-38.93 44.116-58.489 6.694-26.759-25.035-40.638-51.055-18.588-26.021 22.051-33.772 32.772-41.291 48.926v.015Z" fill="#1AB6BD"/>
    <path d="M334.399 545.279c-8.345 17.937 23.876 34.815 46.158 20.124 10.91-7.186 33.453-25.687 40.234-43.623 8.548-22.63-19.892-35.192-42.711-15.865-22.514 19.081-37.104 25.195-43.681 39.35v.014ZM484.77 308.664c-30.106 0-92.188 46.101-108.921 64.313-16.734 18.211 2.231 41.262 37.915 41.262 21.703 0 41.218-12.243 53.171-21.834 0 0 25.644 24.442 50.549 50.085 24.905 25.644 41.638 37.177 41.638 58.735h26.397l-3.346-60.777-49.622-61.705-47.767-70.079h-.014Z" fill="#1AB6BD"/>
    <path d="M364.82 318.933a2.17 2.17 0 0 1-2.173-2.173v-58.285a2.17 2.17 0 0 1 2.173-2.173 2.17 2.17 0 0 1 2.174 2.173v58.285a2.17 2.17 0 0 1-2.174 2.173ZM837.997 503.4h-.029c-1.202 0-2.158-.999-2.144-2.202l2.478-237.169c0-1.188.985-2.144 2.173-2.144h.029c1.202 0 2.159 1 2.144 2.202l-2.477 237.169c0 1.188-.986 2.144-2.174 2.144ZM602.424 503.399a2.17 2.17 0 0 1-2.173-2.174V278.429a2.17 2.17 0 0 1 2.173-2.174 2.17 2.17 0 0 1 2.173 2.174v222.796a2.17 2.17 0 0 1-2.173 2.174ZM466.927 394.576c-.55 0-1.1-.202-1.521-.623a2.174 2.174 0 0 1-.029-3.071l14.735-14.966a2.173 2.173 0 0 1 3.1 3.042l-14.734 14.967a2.15 2.15 0 0 1-1.551.651ZM303.181 541.529a2.156 2.156 0 0 1-2.057-1.478c-.377-1.144.232-2.376 1.362-2.752 9.113-3.072 18.545-11.156 28.831-24.702 11.822-15.575 17.487-40.799 17.545-41.059a2.172 2.172 0 0 1 2.593-1.652 2.172 2.172 0 0 1 1.652 2.593c-.232 1.072-5.926 26.397-18.327 42.74-10.982 14.473-20.805 22.79-30.903 26.194a2.318 2.318 0 0 1-.696.116ZM336.517 562.506a2.185 2.185 0 0 1-2.158-1.913 2.168 2.168 0 0 1 1.883-2.419c.131-.015 12.952-1.724 23.268-11.17 10.808-9.896 24.789-28.223 31.555-49.984a2.19 2.19 0 0 1 2.724-1.434 2.19 2.19 0 0 1 1.434 2.723c-7.027 22.587-21.529 41.625-32.772 51.911-11.373 10.402-25.093 12.199-25.673 12.271-.087 0-.174.015-.275.015h.014ZM114.704 166.707c-.449 0-.912-.145-1.304-.435a2.187 2.187 0 0 1-.434-3.042c22.152-29.411 42.015-59.56 41.87-104.879a2.17 2.17 0 0 1 2.173-2.173 2.17 2.17 0 0 1 2.174 2.173c.144 46.637-21.037 78.685-42.74 107.501a2.16 2.16 0 0 1-1.739.869v-.014ZM842.361 149.947a2.181 2.181 0 0 1-1.666-.768c-20.095-23.76-39.784-65.674-38.538-99.837.043-1.203 1.058-2.144 2.246-2.086a2.169 2.169 0 0 1 2.086 2.245c-1.203 33.062 17.951 73.759 37.509 96.867a2.15 2.15 0 0 1-.26 3.057 2.153 2.153 0 0 1-1.406.507l.029.015Z" fill="#1A1A1A"/>
</svg>
