<svg width="912" height="915" fill="none" xmlns="http://www.w3.org/2000/svg">
    <path d="M695.542 730.229c33.217-18.817 66.036-33.693 88.97-33.693 32.231 0 44.087 22.393 44.087 46.916 0 88.128-191.893 170.581-250.889 170.581-58.995 0-78.178-14.924-78.178-42.657 0-27.734 136.459-283.581 140.019-311.299 3.544-27.717-164.192 11.364-164.192 11.364l-2.591.54-12.857-62.364s35.235-17.117 83.693-35.299c25.858-9.695 55.499-19.708 85.553-27.575h.015c51.224 20.153 132.517 46.742 187.682 38.414 13.986 85.426-121.312 245.056-121.312 245.056v.016Z" fill="#F9BE37"/>
    <path d="M412.1 327.768c-23.331-39.749-60.442-113.731-104.132-61.125-34.822 41.926-27.352 110.759-27.352 110.759l.127.954H169.984c-.461-146.519 106.404-232.564 156.483-233.597 69.66-1.415 119.072 120.517 181.834 161.108 87.189 56.389 236.919 106.135 289.032 80.086 52.13-26.065-32.692-199.968-32.692-199.968l85.298-78.178c55.436 114.192 106.246 314.748 0 365.701-9.917 4.752-20.454 9.774-33.073 11.666-2.305-14.129-8.71-26.24-20.47-35.251-35.537-27.209-102.384-20.137-167.212-3.163h-.016c-28.655-11.284-47.902-20.534-47.902-20.534l-38 47.282.349.827c-35.314 104.612-83.693 35.298-83.693 35.298l-13.795-66.878a19.516 19.516 0 0 0-19.12-15.575h-91.178v-.954c9.949-40.988 76.287-98.442 76.287-98.442l-.016-.016Z" fill="#F9BE37"/>
    <path d="M629.174 446.743c64.828-16.974 131.675-24.046 167.212 3.163 11.761 9.011 18.166 21.122 20.47 35.251-76.705 78.781-179.619 30.474-187.682-38.414ZM377.046 744.152h38.382s-10.903 63.032-45.026 69.182c-34.106 6.167-111.347-49.268-111.347-49.268s-14.208 24.157-26.065 26.049c-10.457 1.684 4.387-36.904 8.01-45.963h136.046Z" fill="#F9BE37"/>
    <path d="m472.768 571.984 32.533 157.676c1.542 7.485-4.164 14.494-11.808 14.494h-80.451l-34.123-316.988h50.667c7.756 0 14.447 5.451 16.005 13.048l14.32 69.405 12.857 62.365Z" fill="#0D99A7"/>
    <path d="M241.003 744.154H24.221c-7.168 0-12.969-5.801-12.969-12.968V576.069H0l10.521-139.351c.413-5.388 4.895-9.552 10.299-9.552h358.104l34.123 316.988H241.003Z" fill="#1AB6BD"/>
    <path d="M273.622 399.778c-1.796 6.643-11.904 17.705-18.245 18.134-17.085 1.144-55.086-3.56-68.229-5.69-8.042-1.303-12.81-7.231-15.21-16.338h94.93a7.808 7.808 0 0 1 6.754 3.894Z" fill="#F9BE37"/>
    <path d="M171.949 395.885h-4.101c-4.323 0-7.819 3.512-7.819 7.819v23.458h-27.956v-27.956c0-11.506 9.329-20.851 20.852-20.851h17.069c.047 6.627.651 12.555 1.955 17.53Z" fill="#0D99A7"/>
    <path d="M273.78 399.079c-.047.223-.095.461-.159.7a7.806 7.806 0 0 0-6.754-3.894h-94.93c-1.303-4.975-1.907-10.903-1.955-17.53h100.842c-.89 2.924-3.56 11.856-3.957 16.576 0 0 4.593-.334 6.913 4.148Z" fill="#F9BE37"/>
    <path d="M263.514 394.931c-10.839.127-9.425-16.576 3.957-16.576h14.336c11.522 0 20.852 9.345 20.852 20.851v27.956h-27.956v-23.458c0-1.43-.382-2.781-1.065-3.925.063-.239.111-.477.159-.7-2.321-4.482-10.283-4.148-10.283-4.148Z" fill="#0D99A7"/>
    <path d="M623.228 285.848c4.148 15.607 11.57 32.469 15.448 48.251 3.226 13.16-7.025 29.53-26.589 17.069-7.152-4.561-6.802-13.334-6.802-13.334l-2.178-48.697 20.121-3.289Z" fill="#F9BE37"/>
    <path d="M596.915 353.025s17.132-30.864 22.854-42.387c5.721-11.522 13.239-20.232-12.858-45.534-26.112-25.302-74.03-26.462-80.594-19.183-6.564 7.279-33.328 50.874-33.328 50.874s12.826 96.17 103.941 56.214l-.015.016Z" fill="#F9BE37"/>
    <path d="M565.037 256.823c-5.038 5.722-30.865 15.528-54.847 12.54-8.344-1.033-16.466-3.624-23.411-8.471-20.756-14.494-6.103-47.695 19.231-38.986 24.078 8.281 37.555 14.05 70.486 25.556" fill="#F9BE37"/>
    <path d="M592.482 303.311c-1.971-1.447-5.468-3.735-9.568-4.991-1.192-.365-2.432.366-2.749 1.574-.255 1.017-.525 2.225-.589 3.274a2.173 2.173 0 0 0 1.034 1.97c1.557 1.002 4.72 2.909 7.581 3.958a2.264 2.264 0 0 0 2.082-.286c.699-.509 1.668-1.272 2.542-2.225.875-.954.732-2.496-.317-3.274h-.016Z" fill="#1A1A1A"/>
    <path d="M593.138 317.568c-.413 1.288-1.828 1.971-3.083 1.463-2.877-1.129-7.47-3.211-8.376-5.213a5.472 5.472 0 0 1-.381-1.161c-3.608.763-7.788-.985-12.429-5.181a2.386 2.386 0 0 1 3.211-3.528c3.321 3.004 6.23 4.45 8.185 4.069 1.462-.286 2.097-1.606 2.129-1.653l4.355 1.923c-1.001 2.304-.89 3.242-.731 3.592.365.794 3.083 1.891 5.674 2.781a2.338 2.338 0 0 1 1.462 2.924l-.016-.016ZM519.438 272.318c-3.178 0-6.373-.175-9.535-.572a2.367 2.367 0 0 1-2.066-2.654c.174-1.304 1.35-2.241 2.654-2.066 23.394 2.892 48.442-6.85 52.765-11.761a2.388 2.388 0 0 1 3.576 3.162c-4.848 5.515-25.652 13.907-47.394 13.907v-.016ZM605.291 340.213c-.381 0-.779-.096-1.128-.286-1.16-.636-1.59-2.082-.954-3.227 8.614-15.877 18.118-35.712 18.532-39.907a2.398 2.398 0 0 1 2.606-2.146 2.39 2.39 0 0 1 2.146 2.606c-.636 6.548-13.986 32.343-19.088 41.72a2.38 2.38 0 0 1-2.098 1.24h-.016ZM578.098 291.928a2.41 2.41 0 0 1-1.319-.397l-5.976-3.957a2.384 2.384 0 0 1-.668-3.306 2.384 2.384 0 0 1 3.306-.668l5.976 3.958a2.384 2.384 0 0 1-1.319 4.37ZM604.487 304.895a2.65 2.65 0 0 1-.779-.127l-6.882-2.4a2.374 2.374 0 0 1-1.462-3.035 2.375 2.375 0 0 1 3.036-1.462l6.882 2.4a2.374 2.374 0 0 1 1.462 3.035 2.402 2.402 0 0 1-2.257 1.605v-.016ZM596.963 294.319a2.38 2.38 0 0 1-1.145-4.466l4.387-2.432a2.38 2.38 0 0 1 3.242.938 2.38 2.38 0 0 1-.938 3.242l-4.386 2.432a2.335 2.335 0 0 1-1.145.301l-.015-.015ZM585.723 289.116a2.361 2.361 0 0 1-2.321-1.859l-1.398-6.214a2.382 2.382 0 0 1 1.811-2.845 2.382 2.382 0 0 1 2.845 1.812l1.399 6.214a2.384 2.384 0 0 1-1.812 2.845 2.94 2.94 0 0 1-.524.063v-.016Z" fill="#1A1A1A"/>
    <path d="M579.99 248.716c23.395 8.853 17.96-.747 26.908.111 8.089.795 4.434 14.733.794 15.274-4.8.715 7.184-12.301 13.573-10.267 8.741 2.781.191 21.773-6.675 18.944-5.769-2.368 6.278-13.191 14.558-5.658 12.46 11.348-15.369 16.625-15.369 16.625l-33.789-35.029Z" fill="#F9BE37"/>
    <path d="M817.011 488.487a2.396 2.396 0 0 1-2.368-2.082c-2.177-17.308-10.298-30.579-24.125-39.447-50.318-32.247-160.616 2.002-161.713 2.352a2.381 2.381 0 1 1-1.43-4.545c4.609-1.463 113.508-35.267 165.717-1.828 15.083 9.663 23.919 24.078 26.287 42.864a2.403 2.403 0 0 1-2.066 2.67c-.095 0-.206.016-.302.016ZM586.966 800.565a2.384 2.384 0 0 1-1.208-4.435c9.377-5.53 21.933-13.668 36.475-23.076 21.805-14.129 48.951-31.691 74.253-46.075a2.392 2.392 0 0 1 3.258.89c.651 1.145.254 2.607-.89 3.243-25.175 14.303-52.257 31.849-74.014 45.931-14.59 9.44-27.178 17.593-36.65 23.188a2.394 2.394 0 0 1-1.208.334h-.016Z" fill="#1A1A1A"/>
    <path d="M818.788 68.382c42.18 39.908 48.219 72.95 29.354 97.314-18.865 24.364-59.392 59.075-91.274 40.003-35.601-21.313-59.631-65.4-59.631-65.4s73.077-117.768 121.551-71.917Z" fill="#F9BE37"/>
    <path d="M756.284 204.46s.191.063.222.063c-.031-.079 0-.111-.079-.191-2.146-2.288-4.736-4.084-7.295-6.007-17.562-12.254-39.002-21.694-60.68-18.818-1.478.207-3.83.636-5.277 1.033-1.621.318-3.719 1.065-5.292 1.542l-2.527.779c-8.503 2.638-17.53-2.098-20.168-10.601-1.939-6.214.095-12.714 4.64-16.799l3.195-2.845c7.692-6.691 16.624-12.063 26.097-15.925 27.113-10.998 57.135-10.918 85.361-5.499 5.5 1.129 11.094 2.416 16.482 4.244l.715.254.365.143.62.27c44.358 25.89 9.933 90.655-36.347 68.341l-.032.016Z" fill="#F9BE37"/>
    <path d="M718.337 159.465c-15.4-23.299-29.958-47.361-43.356-71.789-4.609-8.121-9.473-17.53-12.906-25.54-8.741-20.423 11.602-38.048 27.019-22.14 24.396 27.544 41.608 59.695 57.024 92.689 1.574 3.37 3.211 7.168 4.705 10.601l.778 1.828c5.992 11.904.875 26.653-11.586 31.723-12.333 5.165-26.684-1.653-30.499-14.463l8.821-2.94v.031Z" fill="#F9BE37"/>
    <path d="M728.642 128.026c-10.124-15.687-16.513-31.707-23.363-48.109-3.147-7.613-6.215-15.019-9.441-22.012-3.306-7.168-6.739-13.827-10.601-19.66-5.403-8.232-3.115-19.294 5.134-24.698 7.692-5.054 17.911-3.306 23.617 3.656 6.167 7.58 11.078 15.305 15.575 22.902 12.206 20.375 21.79 43.166 36.11 61.395 7.946 9.774 6.452 24.142-3.322 32.088-10.474 8.646-26.542 5.96-33.694-5.562h-.015Z" fill="#F9BE37"/>
    <path d="M764.102 111.944c-6.628-7.04-11.634-15.543-15.623-24.285-6.675-15.082-11.602-28.575-19.437-42.37-3.561-6.421-7.645-12.588-11.873-18.69-11.49-17.722 11.968-36.174 26.478-20.948 11.316 12.317 21.615 26.224 30.134 40.591 4.863 8.042 8.773 15.48 13.207 22.473 1.875 2.924 3.989 6.007 6.437 8.407.89.986 2.066 1.764 3.019 2.702 9.345 8.471 10.045 22.902 1.59 32.231-8.98 10.029-25.032 9.95-33.932-.127v.016Z" fill="#F9BE37"/>
    <path d="M792.447 100.244c-9.345-11.284-15.781-24.046-21.63-36.554-5.038-10.632-9.536-21.217-16.449-29.879-12.445-16.926 9.345-36.84 25.079-23.124 5.849 5.372 10.585 11.188 14.749 16.83 7.597 10.3 19.882 31.183 25.556 41.784 6.627 12.38-7.867 2.145-4.418 5.18 9.456 8.36 20.581 17.308 12.221 26.765-9.234 10.68-26.493 10.14-35.108-1.002Z" fill="#F9BE37"/>
    <path d="M812.418 155.969c-.81 0-1.589-.413-2.05-1.16-10.521-17.467-24.285-28.258-40.909-32.104-31.564-7.295-63.334 12.953-63.652 13.159a2.38 2.38 0 0 1-3.29-.699 2.381 2.381 0 0 1 .699-3.29c1.367-.874 33.741-21.535 67.292-13.811 17.943 4.132 32.74 15.686 43.944 34.297a2.382 2.382 0 0 1-.81 3.274 2.292 2.292 0 0 1-1.224.334ZM777.138 78.98c-.874 0-1.7-.476-2.129-1.303-5.96-11.681-11.189-20.693-15.401-27.94-9.663-16.64-14.51-25-9.25-34.997.604-1.16 2.051-1.605 3.227-1a2.39 2.39 0 0 1 1.001 3.226c-4.037 7.66-.175 14.32 9.154 30.387 4.228 7.295 9.505 16.354 15.512 28.163a2.392 2.392 0 0 1-1.033 3.21c-.35.175-.715.255-1.081.255ZM752.747 95.985a2.37 2.37 0 0 1-1.955-1.017c-43.944-62.73-40.114-76.748-38.906-78.926l4.164 2.32s.048-.063.095-.206c-.175.524-3.878 13.51 38.541 74.062a2.378 2.378 0 0 1-.588 3.322c-.413.286-.89.429-1.367.429l.016.016ZM727.666 111.329a2.395 2.395 0 0 1-1.923-.969c-39.288-53.322-43.595-70.582-43.754-71.297a2.384 2.384 0 0 1 4.641-1.097c.064.27 4.689 17.626 42.959 69.565a2.385 2.385 0 0 1-1.923 3.798Z" fill="#1A1A1A"/>
    <path d="M381.251 578.459H11.243a2.38 2.38 0 0 1-2.384-2.384 2.38 2.38 0 0 1 2.384-2.384h365.351l3.163-142.005c.031-1.319 1.096-2.336 2.431-2.336a2.402 2.402 0 0 1 2.337 2.431l-3.258 146.678h-.016Z" fill="#0D99A7"/>
    <path d="M89.493 557.114H70.119v37.905h19.374v-37.905ZM316.264 557.114H296.89v37.905h19.374v-37.905Z" fill="#F9BE37"/>
    <path d="M222.429 316.424c37.19 1.478 56.881 17.975 59.376 20.153a.718.718 0 0 1 .239.604l-1.145 14.558c-.047.635-.81.89-1.271.445-20.073-18.929-53.528-19.406-53.528-19.406h-33.582s-11.729 2.082-18.897 5.372c-.858.397-1.812-.302-1.669-1.24l2.241-13.111a1.25 1.25 0 0 1 .604-.859c6.691-4.259 21.249-5.578 21.249-5.578l26.367-.938h.016Z" fill="#1AB6BD"/>
    <path d="M211.088 348.815c13.79 0 24.969-11.178 24.969-24.968 0-13.789-11.179-24.968-24.969-24.968-13.789 0-24.968 11.179-24.968 24.968 0 13.79 11.179 24.968 24.968 24.968Z" fill="#F5F5F0"/>
    <path d="M211.103 326.236a2.381 2.381 0 0 1-2.384-2.384v-15.321a2.381 2.381 0 0 1 2.384-2.384 2.381 2.381 0 0 1 2.384 2.384v15.321a2.381 2.381 0 0 1-2.384 2.384Z" fill="#1A1A1A"/>
    <path d="M223.777 329.52c-.19 0-.397-.032-.604-.08l-12.682-3.274a2.406 2.406 0 0 1-1.717-2.908 2.399 2.399 0 0 1 2.909-1.717l12.682 3.274a2.406 2.406 0 0 1 1.717 2.909 2.36 2.36 0 0 1-2.305 1.78v.016Z" fill="#1A1A1A"/>
</svg>
